<svg width="1400" height="1000" viewBox="0 0 1400 1000" fill="none" xmlns="http://www.w3.org/2000/svg">
  <defs>
    <linearGradient id="bg" x1="0" y1="0" x2="0" y2="1">
      <stop offset="0%" stop-color="#1A1A1A"/>
      <stop offset="100%" stop-color="#0B0B0B"/>
    </linearGradient>
    <linearGradient id="floor" x1="0" y1="0" x2="1" y2="0">
      <stop offset="0%" stop-color="#202020"/>
      <stop offset="100%" stop-color="#2D2D2D"/>
    </linearGradient>
  </defs>

  <rect width="1400" height="1000" fill="url(#bg)"/>
  <rect y="780" width="1400" height="220" fill="url(#floor)"/>

  <g opacity="0.35" stroke="#94A3B8" stroke-width="3">
    <line x1="0" y1="160" x2="1400" y2="160"/>
    <line x1="0" y1="220" x2="1400" y2="220"/>
    <line x1="0" y1="280" x2="1400" y2="280"/>
    <line x1="100" y1="0" x2="100" y2="780"/>
    <line x1="220" y1="0" x2="220" y2="780"/>
    <line x1="340" y1="0" x2="340" y2="780"/>
  </g>

  <g transform="translate(160,190)">
    <rect x="0" y="0" width="1080" height="560" rx="8" fill="#0F172A" stroke="#1D4ED8" stroke-width="10"/>

    <rect x="40" y="40" width="250" height="480" fill="#F97316" stroke="#1E40AF" stroke-width="14"/>
    <rect x="320" y="40" width="250" height="480" fill="#F97316" stroke="#1E40AF" stroke-width="14"/>
    <rect x="600" y="40" width="210" height="480" fill="#F97316" stroke="#1E40AF" stroke-width="14"/>
    <rect x="840" y="40" width="200" height="480" fill="#F97316" stroke="#1E40AF" stroke-width="14"/>

    <rect x="72" y="78" width="186" height="220" fill="#111827" stroke="#60A5FA" stroke-width="3"/>
    <rect x="106" y="118" width="118" height="140" fill="#E5E7EB"/>
    <circle cx="365" cy="160" r="18" fill="#1E293B" stroke="#E2E8F0"/>
    <circle cx="365" cy="220" r="18" fill="#1E293B" stroke="#E2E8F0"/>
    <circle cx="365" cy="280" r="18" fill="#1E293B" stroke="#E2E8F0"/>
    <circle cx="365" cy="340" r="18" fill="#1E293B" stroke="#E2E8F0"/>

    <rect x="656" y="110" width="100" height="70" fill="#111827" stroke="#93C5FD"/>
    <rect x="656" y="215" width="100" height="70" fill="#111827" stroke="#93C5FD"/>
    <rect x="656" y="320" width="100" height="70" fill="#111827" stroke="#93C5FD"/>

    <g stroke="#0F172A" stroke-width="8">
      <line x1="890" y1="130" x2="1010" y2="130"/>
      <line x1="890" y1="220" x2="1010" y2="220"/>
      <line x1="890" y1="310" x2="1010" y2="310"/>
      <line x1="890" y1="400" x2="1010" y2="400"/>
    </g>

    <rect x="25" y="530" width="1030" height="18" fill="#1E3A8A" opacity="0.8"/>
  </g>

  <text x="160" y="130" fill="#E5E7EB" font-size="42" font-family="Inter,Arial,sans-serif" font-weight="700">
    Industrial Switchboard Assembly — JOSM Electrical
  </text>
</svg>
